<?xml version="1.0" encoding="utf-8" ?><svg xmlns="http://www.w3.org/2000/svg" xmlns:xlink="http://www.w3.org/1999/xlink" width="64" height="64" viewBox="0 0 64 64"><defs><linearGradient id="gradient_0" gradientUnits="userSpaceOnUse" x1="638.6947" y1="799.36322" x2="430.078" y2="283.39841"><stop offset="0" stop-color="#D85157"/><stop offset="1" stop-color="#F2998B"/></linearGradient></defs><path fill="url(#gradient_0)" transform="scale(0.0625 0.0625)" d="M112.097 337.225C111.459 324.934 112.379 308.749 112.029 295.956C111.857 289.667 111.678 265.008 112.662 259.743C113.419 255.662 115.219 251.846 117.885 248.665C121.436 244.415 126.708 241.19 132.242 240.946C142.715 240.483 153.646 240.759 164.138 240.755L228.125 240.77L433.703 240.929L735.436 240.801L832.759 240.87C851.6 240.83 870.625 240.649 889.456 240.862C895.023 240.925 899.049 242.337 903.284 246.043C906.837 249.152 910.088 253.417 910.506 258.299C912.187 266.364 911.553 297.222 911.555 306.855L911.553 406.739L911.535 607.99L911.53 674.543C911.528 680.384 911.277 685.881 911.528 692.532C912.151 709.059 912.706 731.729 891.976 736.268C887.378 737.274 873.03 736.457 867.414 736.437L816.548 736.47L663.996 736.475L613.571 736.435C603.141 736.429 591.542 736.243 581.186 736.753C572.091 753.844 560.407 770.818 550.709 787.703C543.27 799.674 536.796 812.268 528.251 823.513C518.429 836.439 502.363 834.492 494.035 821.383C476.229 793.357 460.734 763.236 442.628 735.518L221.965 735.394L158.442 735.455C148.998 735.468 139.425 735.717 130.002 735.226C126.263 735.031 122.046 731.984 119.391 729.525C109.209 720.095 111.696 702.692 111.8 689.398C111.96 675.474 111.99 661.55 111.889 647.626C111.401 553.729 112.084 459.856 111.979 365.961C111.968 356.385 111.968 346.8 112.097 337.225Z"/><defs><linearGradient id="gradient_1" gradientUnits="userSpaceOnUse" x1="560.74011" y1="823.76874" x2="487.69443" y2="351.63004"><stop offset="0" stop-color="#831843"/><stop offset="1" stop-color="#DB5F5F"/></linearGradient></defs><path fill="url(#gradient_1)" transform="scale(0.0625 0.0625)" d="M910.506 258.299C912.187 266.364 911.553 297.222 911.555 306.855L911.553 406.739L911.535 607.99L911.53 674.543C911.528 680.384 911.277 685.881 911.528 692.532C912.151 709.059 912.706 731.729 891.976 736.268C887.378 737.274 873.03 736.457 867.414 736.437L816.548 736.47L663.996 736.475L613.571 736.435C603.141 736.429 591.542 736.243 581.186 736.753C572.091 753.844 560.407 770.818 550.709 787.703C543.27 799.674 536.796 812.268 528.251 823.513C518.429 836.439 502.363 834.492 494.035 821.383C476.229 793.357 460.734 763.236 442.628 735.518L221.965 735.394L158.442 735.455C148.998 735.468 139.425 735.717 130.002 735.226C126.263 735.031 122.046 731.984 119.391 729.525C109.209 720.095 111.696 702.692 111.8 689.398C111.96 675.474 111.99 661.55 111.889 647.626C111.401 553.729 112.084 459.856 111.979 365.961C111.968 356.385 111.968 346.8 112.097 337.225C112.134 337.411 112.173 337.596 112.207 337.782C114.332 349.622 110.711 416.348 114.252 419.991C115.307 418.409 116.669 415.646 117.955 414.886L118.623 415.408C118.71 417.19 118.391 417.341 119.313 418.385C120.253 418.036 121.022 417.354 121.232 416.257C122.538 409.435 137.74 406.438 143.553 405.396C143.903 398.22 143.264 345.628 144.538 343.699C144.812 350.736 144.691 358.235 144.686 365.315L144.455 562.765C144.417 609.223 143.471 657.698 144.424 703.969L648.785 703.518L803.697 703.441C829.088 703.432 855.761 702.933 881.008 703.431L880.987 395.949L880.997 309.518L881.01 284.174C881.01 281.242 881.178 273.864 880.825 271.313L879.769 270.841C876.068 270.15 867.888 270.497 863.75 270.404C851.729 270.132 838.724 270.84 826.79 270.234C831.161 269.732 840.676 269.992 845.368 269.991L881.44 270C881.664 275.398 880.352 297.469 882.187 300.443L881.77 301.021L881.533 300.303L881.641 301.046C882.558 300.143 882.041 300.493 883.179 299.981C889.466 303.999 889.104 295.975 896.986 296.169C898.569 294.811 900.114 293.138 901.579 291.632C902.689 293.767 902.506 294.411 904.852 294.824C906.825 294.036 907.847 292.33 909.236 290.612L909.936 290.594C910.637 292.865 910.687 297.883 910.805 300.466C911.154 298.924 911.011 293.332 911.023 291.502C911.085 281.236 909.797 268.979 910.462 258.885L910.506 258.299Z"/><path fill="#E5666A" transform="scale(0.0625 0.0625)" d="M112.097 337.225C111.459 324.934 112.379 308.749 112.029 295.956C111.857 289.667 111.678 265.008 112.662 259.743C113.419 255.662 115.219 251.846 117.885 248.665C121.436 244.415 126.708 241.19 132.242 240.946C142.715 240.483 153.646 240.759 164.138 240.755L228.125 240.77L433.703 240.929L735.436 240.801L832.759 240.87C851.6 240.83 870.625 240.649 889.456 240.862C895.023 240.925 899.049 242.337 903.284 246.043C906.837 249.152 910.088 253.417 910.506 258.299L910.462 258.885C909.797 268.979 911.085 281.236 911.023 291.502C911.011 293.332 911.154 298.924 910.805 300.466C910.687 297.883 910.637 292.865 909.936 290.594L909.236 290.612C907.847 292.33 906.825 294.036 904.852 294.824C902.506 294.411 902.689 293.767 901.579 291.632C900.114 293.138 898.569 294.811 896.986 296.169C889.104 295.975 889.466 303.999 883.179 299.981C882.041 300.493 882.558 300.143 881.641 301.046L881.533 300.303L881.77 301.021L882.187 300.443C880.352 297.469 881.664 275.398 881.44 270L845.368 269.991C840.676 269.992 831.161 269.732 826.79 270.234C838.724 270.84 851.729 270.132 863.75 270.404C867.888 270.497 876.068 270.15 879.769 270.841C870.06 271.507 852.812 270.917 842.416 270.927L751.891 270.528L516.57 270.487C479.087 270.491 438.949 269.774 401.663 270.58C365.55 270.027 328.432 270.499 292.241 270.489L144.944 270.491L144.924 317.844C144.898 325.197 145.14 336.73 144.538 343.699C143.264 345.628 143.903 398.22 143.553 405.396C137.74 406.438 122.538 409.435 121.232 416.257C121.022 417.354 120.253 418.036 119.313 418.385C118.391 417.341 118.71 417.19 118.623 415.408L117.955 414.886C116.669 415.646 115.307 418.409 114.252 419.991C110.711 416.348 114.332 349.622 112.207 337.782C112.173 337.596 112.134 337.411 112.097 337.225Z"/><path fill="#F29D8D" transform="scale(0.0625 0.0625)" d="M144.944 270.491L292.241 270.489C328.432 270.499 365.55 270.027 401.663 270.58L402.496 271.165C418.404 271.547 434.587 271.086 450.505 271.243C453.173 271.269 466.624 270.994 468.314 271.466L468.038 271.975C466.985 271.745 467.019 271.836 466.08 271.368C465.008 272.499 462.916 273.899 461.335 273.787C461.313 274.807 461.361 275.509 461.434 276.528C458.749 280.091 455.666 277.284 452.469 282.464C452.225 282.568 449.766 283.623 449.704 283.714C448.768 285.101 449.08 286.539 447.576 286.74C442.155 283.518 440.116 287.645 437.219 292.229C437.39 292.934 437.462 293.533 437.503 294.268C429.726 300.265 419.13 298.769 409.763 300.957C407.453 301.497 399.374 305.358 397.143 306.532C396.634 308.861 398.415 307.566 396.496 308.832L393.817 308.041L393.288 308.795L393.753 310.867L392.873 310.983L392.065 309.004L390.828 308.501C390.22 308.962 389.354 310.715 389.544 310.749C378.83 308.835 377.688 315.574 370.067 318.893L368.847 318.286L368.744 318.695C368.845 317.615 370.924 315.487 370.312 314.472C367.918 315.028 364.85 318.055 363.443 319.977C364.617 320.505 364.248 320.301 365.754 320.152C364.222 328.517 335.991 330.724 328.863 332.809C327.879 333.097 324.931 340.121 322.228 340.604C321.394 338.652 320.245 335.509 318.944 333.989C318.344 333.923 309.465 337.24 308.786 337.65C313.302 342.934 311.857 339.785 316.645 341.4C317.942 341.124 317.818 341.279 318.923 340.669L319.4 341.549C318.869 342.452 318.938 342.615 317.658 342.795C313.309 343.406 308.216 344.203 303.843 344.705C303.241 343.877 303.284 343.948 302.832 343.087C297.371 344.67 300.012 351.288 297.728 354.774C297.217 353.829 297.346 353.924 297.124 352.822C289.575 352.73 288.661 353.779 286.778 360.274L286.112 360.225C278.766 359.753 272.813 362.154 265.799 363.497C264.092 363.824 259.191 367.056 259.151 367.052C253.467 366.484 245.187 366.001 244.587 373.77C244.416 375.981 239.006 378.506 237.079 379.306C233.426 380.408 230.914 378.721 226.824 381.375C225.316 380.95 225.932 381.359 224.972 380.024L224.638 377.085C225.645 376.443 229.683 376.163 230.919 376.195C235.563 376.317 237.916 373.83 240.872 370.822L241.04 370.013C238.756 370.037 237.153 371.85 235.057 372.242C231.537 372.9 226.664 372.596 223.089 372.468C222.343 373.508 222.611 372.93 222.306 374.212L221.626 374.823L220.517 374.002C217.327 375.267 214.265 377.392 210.89 376.61C205.915 375.457 204.061 379.616 201.593 382.981L202.073 383.45L204.682 383.304C204.394 384.577 203.939 384.467 202.803 384.521C200.184 384.646 197.153 388.529 194.688 388.9L194.978 388.207C196.186 385.269 197.358 383.37 194.276 381.22C189.891 381.34 186.708 383.219 182.618 383.581L182.273 383.862C180.702 385.113 180.55 385.156 178.702 385.899L178.33 386.724C180.022 388.851 181.134 388.778 181.322 390.564C180.671 391.146 179.82 391.646 178.929 391.694C176.287 391.836 173.975 396.972 172.003 396.528C169.918 396.059 168.375 396.774 166.51 397.543C165.904 399.214 165.882 399.528 164.444 400.715L163.659 400.692C163.292 399.608 163.206 399.202 162.993 398.072C160.239 396.033 155.73 397.774 153.833 400.254C153.843 402.187 153.897 402.819 154.202 404.73C152.345 404.846 151.568 404.699 149.761 404.465L149.42 404.986C150.233 406.334 151.156 407.278 151.099 408.559C150.161 409.092 149.282 409.657 148.423 410.309C148.194 411.469 148.088 411.971 147.975 413.149C143.188 411.494 147.204 372.52 144.686 365.315C144.691 358.235 144.812 350.736 144.538 343.699C145.14 336.73 144.898 325.197 144.924 317.844L144.944 270.491Z"/><defs><linearGradient id="gradient_2" gradientUnits="userSpaceOnUse" x1="550.26617" y1="642.12292" x2="419.0228" y2="382.15433"><stop offset="0" stop-color="#661342"/><stop offset="1" stop-color="#C73A57"/></linearGradient></defs><path fill="url(#gradient_2)" transform="scale(0.0625 0.0625)" d="M429.779 413.338C454.767 395.368 481.846 373.171 506.16 353.93C511.876 349.418 517.547 344.848 523.171 340.222C526.998 337.082 531.098 333.32 535.203 330.862C547.005 323.796 559.92 334.002 559.88 346.826C559.855 354.858 560.031 362.814 560.049 370.703L560.136 413.411L560.184 549.829L560.2 604.231C560.217 610.333 560.935 627.486 559.534 632.418C560.502 638.568 560.666 655.303 559.395 660.935C555.771 676.996 540.081 678.13 528.894 668.311C523.871 663.904 516.321 658.595 511.108 654.555L452.692 609.095C443.32 601.863 434.065 590.491 422.149 591.663C419.483 591.925 416.261 591.79 413.55 591.819L385.333 591.9C375.356 591.971 364.402 592.747 354.833 590.856C347.785 589.464 341.63 580.318 341.283 573.795C340.909 566.774 339.606 549.634 341.47 543.276L341.472 466.747C341.476 454.132 341.107 441.166 342.054 428.717C342.529 422.471 349.564 414.484 355.524 414.038C379.612 412.235 405.79 414.407 429.779 413.338Z"/><defs><linearGradient id="gradient_3" gradientUnits="userSpaceOnUse" x1="513.64722" y1="697.52344" x2="387.66376" y2="516.39154"><stop offset="0" stop-color="#D63754"/><stop offset="1" stop-color="#E46369"/></linearGradient></defs><path fill="url(#gradient_3)" transform="scale(0.0625 0.0625)" d="M559.534 632.418C560.502 638.568 560.666 655.303 559.395 660.935C555.771 676.996 540.081 678.13 528.894 668.311C523.871 663.904 516.321 658.595 511.108 654.555L452.692 609.095C443.32 601.863 434.065 590.491 422.149 591.663C419.483 591.925 416.261 591.79 413.55 591.819L385.333 591.9C375.356 591.971 364.402 592.747 354.833 590.856C347.785 589.464 341.63 580.318 341.283 573.795C340.909 566.774 339.606 549.634 341.47 543.276C345.508 564.924 358.779 562.019 376.325 561.917L411.41 561.71C416.3 561.683 424.954 561.386 429.522 561.704C433.099 563.944 436.584 566.845 439.908 569.493C468.703 592.44 498.073 614.654 527.105 637.298C531.919 641.052 537.359 645.548 543.736 645.104C551.656 644.753 557.046 639.6 559.534 632.418Z"/><path fill="#93264E" transform="scale(0.0625 0.0625)" d="M597.755 378.606C605.595 378.344 625.445 388.83 632.664 393.268C657.33 408.713 674.859 433.316 681.4 461.674C687.679 489.932 682.472 519.527 666.923 543.944C652.622 566.752 627.138 587.434 600.609 593.508C595.995 593.789 592.291 591.946 590.506 587.527C585.342 574.751 605.143 573.106 612.79 568.949C635.096 556.821 652.363 538.529 660.693 514.247C668.34 491.294 666.529 466.24 655.659 444.626C645.096 423.692 627.106 407.45 605.205 399.074C599.169 396.709 586.704 395.603 590.685 384.524C591.92 381.088 594.514 379.897 597.755 378.606Z"/><path fill="#93264E" transform="scale(0.0625 0.0625)" d="M609.371 453.876C605.668 449.966 603.77 448.617 599.356 445.618C593.818 441.855 584.206 440.006 584.278 432.203C584.304 429.488 585.416 427.783 587.132 425.982C588.777 424.256 592.976 422.649 595.238 423.174C606.32 425.745 618.886 435.582 625.596 443.973C637.452 458.799 641.883 474.767 639.604 493.403C639.543 493.904 638.617 501.235 638.616 501.19C644.02 529.201 625.544 562.337 596.369 570.815C587.084 573.513 579.867 563.313 586.853 555.419C590.469 551.333 603.762 547.756 605.315 543.312C603.833 544.068 602.339 544.8 600.833 545.508C589.636 550.695 579.588 542.394 586.684 531.063C589.063 528.442 593.891 527.038 596.759 525.54C608.338 519.496 614.587 510.908 619.377 499.145C616.134 488.576 608.064 476.766 598.292 471.203C593.197 468.303 585.752 467.867 583.973 460.991C583.33 458.457 583.74 455.771 585.112 453.545C591.578 442.86 605.592 454.709 609.371 453.876Z"/><path fill="#E5666A" transform="scale(0.0625 0.0625)" d="M605.315 543.312C607.307 541.536 612.815 538.643 615.443 536.367C629.13 524.509 632.455 516.835 638.616 501.19C644.02 529.201 625.544 562.337 596.369 570.815C587.084 573.513 579.867 563.313 586.853 555.419C590.469 551.333 603.762 547.756 605.315 543.312Z"/><path fill="#E5666A" transform="scale(0.0625 0.0625)" d="M619.377 499.145C616.134 488.576 608.064 476.766 598.292 471.203C593.197 468.303 585.752 467.867 583.973 460.991C583.33 458.457 583.74 455.771 585.112 453.545C591.578 442.86 605.592 454.709 609.371 453.876C621.249 465.031 623.501 484.06 619.377 499.145Z"/><path fill="#F29D8D" transform="scale(0.0625 0.0625)" d="M147.733 414.275L148.238 416.023C147.577 417.845 148.126 417.07 146.291 418.236C145.498 416.442 146.628 415.836 147.733 414.275Z"/></svg>