<?xml version="1.0" encoding="UTF-8" standalone="no"?>
<svg
   width="1024"
   height="1024"
   version="1.1"
   id="svg8"
   sodipodi:docname="letter-a-alongside-with-a-japanese-letter-in-a-spe(1).svg"
   inkscape:version="1.4.2 (ebf0e940d0, 2025-05-08)"
   xmlns:inkscape="http://www.inkscape.org/namespaces/inkscape"
   xmlns:sodipodi="http://sodipodi.sourceforge.net/DTD/sodipodi-0.dtd"
   xmlns="http://www.w3.org/2000/svg"
   xmlns:svg="http://www.w3.org/2000/svg">
  <defs
     id="defs8" />
  <sodipodi:namedview
     id="namedview8"
     pagecolor="#ffffff"
     bordercolor="#000000"
     borderopacity="0.25"
     inkscape:showpageshadow="2"
     inkscape:pageopacity="0.0"
     inkscape:pagecheckerboard="0"
     inkscape:deskcolor="#d1d1d1"
     inkscape:zoom="0.76367188"
     inkscape:cx="511.34527"
     inkscape:cy="512"
     inkscape:window-width="2560"
     inkscape:window-height="984"
     inkscape:window-x="0"
     inkscape:window-y="0"
     inkscape:window-maximized="1"
     inkscape:current-layer="svg8" />
  <path
     fill="#9bc1bc"
     d="m 409.29672,337.26251 c 0.61601,-18.38977 0.011,-37.0353 0.005,-55.44982 l -0.0192,-111.97767 c -0.005,-45.86855 -10.65656,-114.568799 52.43023,-123.539828 16.11546,-2.29164 33.66095,-0.916051 49.99367,-0.911376 l 415.68527,0.0242 c -1.69405,20.861265 1.87555,42.425176 2.08181,63.427524 0.84152,85.96193 -20.25982,161.60008 -76.42466,226.84292 -7.07045,8.21724 -24.4482,24.29144 -28.80982,32.40967 l -6.30043,1.29804 h -28.68606 c 58.82141,-47.6561 71.54877,-94.99869 71.76328,-165.71145 0.14851,-48.30511 -16.23371,-46.1958 -59.67394,-46.0803 -23.61492,0.066 -47.42509,0.73702 -71.01801,0.0715 0.0688,-15.75244 3.88861,-35.98202 -8.47299,-48.05486 -12.03159,-11.751084 -33.64445,-11.528327 -45.01878,1.06978 -10.98931,12.1746 -6.83119,31.96966 -7.0402,46.98508 l -74.92587,-0.033 c -29.22783,0.003 -65.11634,-5.53866 -64.74508,35.94627 0.68202,75.8609 23.35366,128.96765 81.30055,175.80698 -17.24574,0.62977 -48.34087,-2.87933 -63.35629,2.64557 -20.65859,7.59847 -25.02296,35.79777 -8.04948,50.00192 11.43482,9.57027 26.37875,7.2382 40.17589,7.17495 45.81354,-0.21175 77.17543,-3.44309 121.39118,-20.66133 31.18864,12.16359 50.34568,14.64966 81.86157,20.58708 -16.31621,22.29488 -76.19365,52.63374 -81.86157,62.86128 -3.75935,-0.0797 -7.50221,-0.18975 -11.25881,0 -11.26982,-0.77552 -23.16666,-0.0302 -34.49698,-0.0275 l -71.90079,0.0275 c -28.50456,-0.76177 -57.27037,-0.003 -85.79968,0.0358 -77.10668,0.10726 -88.81376,-25.90023 -88.86327,-99.12106 z"
     id="path1"
     style="stroke-width:2.75008" />
  <path
     fill="#9fc2b9"
     d="m 927.39214,45.408017 c 63.89256,0.02228 73.27586,26.766233 73.29506,84.264863 v 294.7891 c -0.1733,82.52434 -64.26385,65.2676 -121.86148,67.53366 H 701.58324 c 5.66792,-10.22754 65.54536,-40.5664 81.86157,-62.86128 20.54859,-1.52904 69.05171,5.96217 82.59584,-8.47024 11.08557,-11.81433 10.25504,-32.87718 -1.58679,-43.84724 -11.77033,-10.90406 -31.7304,-7.82397 -46.51482,-7.43071 l 6.30043,-1.29804 c 4.36162,-8.11823 21.73937,-24.19243 28.80982,-32.40967 56.16484,-65.24284 77.26618,-140.88099 76.42466,-226.84292 -0.20626,-21.002347 -3.77586,-42.566258 -2.08181,-63.427523 z"
     id="path2"
     style="stroke-width:2.75008" />
  <path
     fill="#4d6157"
     d="m 789.25298,369.38617 h 28.68606 c 14.78442,-0.39326 34.74449,-3.47335 46.51482,7.43071 11.84183,10.97006 12.67236,32.03291 1.58679,43.84724 -13.54413,14.43241 -62.04725,6.9412 -82.59584,8.47024 -31.51589,-5.93742 -50.67293,-8.42349 -81.86157,-20.58708 -44.21575,17.21824 -75.57764,20.44958 -121.39118,20.66133 -13.79714,0.0632 -28.74107,2.39532 -40.17589,-7.17495 -16.97348,-14.20415 -12.60911,-42.40345 8.04948,-50.00192 15.01542,-5.5249 46.11055,-2.0158 63.35629,-2.64557 -57.94689,-46.83933 -80.61853,-99.94608 -81.30055,-175.80698 -0.37126,-41.48493 35.51725,-35.94352 64.74508,-35.94627 l 74.92587,0.033 c 0.20901,-15.01542 -3.94911,-34.81048 7.0402,-46.98508 11.37433,-12.598106 32.98719,-12.820863 45.01878,-1.06978 12.3616,12.07284 8.54174,32.30242 8.47299,48.05486 23.59292,0.66552 47.40309,-0.006 71.01801,-0.0715 43.44023,-0.1155 59.82245,-2.22481 59.67394,46.0803 -0.21451,70.71276 -12.94187,118.05535 -71.76328,165.71145 z M 586.85275,214.48528 c 9.65552,74.2576 43.54198,116.5153 114.73049,137.63315 37.90983,-13.50288 73.72409,-35.79776 90.40057,-74.0816 9.60327,-20.83734 10.76655,-41.02291 10.6483,-63.55155 h -72.3078 c 0.077,15.02368 3.32759,41.14942 -7.64797,52.62824 -11.67958,12.2076 -32.20616,11.91059 -44.05625,0.20076 -12.3451,-12.19935 -8.9075,-36.8263 -8.82775,-52.829 z"
     id="path3"
     style="stroke-width:2.75008" />
  <path
     fill="#9bc1bc"
     d="M 701.58324,352.11843 C 630.39473,331.00058 596.50827,288.74288 586.85275,214.48528 h 82.93959 c -0.0797,16.0027 -3.51735,40.62965 8.82775,52.829 11.85009,11.70983 32.37667,12.00684 44.05625,-0.20076 10.97556,-11.47882 7.72497,-37.60456 7.64797,-52.62824 h 72.3078 c 0.11825,22.52864 -1.04503,42.71421 -10.6483,63.55155 -16.67648,38.28384 -52.49074,60.57872 -90.40057,74.0816 z"
     id="path4"
     style="stroke-width:2.75008" />
  <path
     fill="#f4f1bb"
     d="m 409.29672,346.63202 c -0.23651,-3.20934 -0.32451,-6.15192 0,-9.36951 l -0.033,55.64782 c 0.0495,73.22083 11.75659,99.22832 88.86327,99.12106 28.52931,-0.0385 57.29512,-0.79752 85.79968,-0.0358 1.15228,4.68338 8.00548,13.48088 10.46405,18.43652 18.65928,37.60457 21.1921,74.14485 21.2306,115.12651 l 0.008,109.76661 c -0.008,16.16771 0.73702,32.91294 -2.52457,48.81389 -7.15295,34.89299 -41.69118,61.68149 -76.45217,63.48555 -12.6256,0.65451 -25.77098,-0.36577 -38.29758,1.27878 -18.37327,2.41182 -12.57886,21.05185 -12.56236,37.35706 l -0.0605,49.36665 c -0.0495,14.48466 -0.78102,56.5691 -27.48978,36.70804 -8.67924,-6.45444 -16.1127,-16.06046 -23.72767,-23.78268 C 406.13688,919.78126 368.1308,873.4067 338.46846,848.8485 l -0.92678,-0.75902 c -16.40146,-4.25712 -35.5475,-1.96356 -52.42748,-2.09831 L 155.57178,845.86192 C 110.57775,845.82066 64.863759,852.66836 35.186569,810.55642 16.374111,783.85866 22.103898,727.0393 22.104448,692.56982 l -0.01678,-69.43396 c -0.0088,-26.5245 -0.34981,-52.44949 4.333847,-78.67698 C 52.962242,395.83367 194.94738,293.19526 344.44988,320.09102 c 19.5118,3.5091 52.82625,9.16051 64.84683,26.541 z m -102.58341,85.34042 c -24.02193,5.64866 -30.12435,33.5152 -38.9191,53.26901 l -86.11044,190.01938 c -10.26054,22.28938 -21.90437,44.32851 -30.21511,67.44016 -11.72633,32.61593 36.50729,58.62891 58.06515,15.40044 10.07353,-20.19657 18.06801,-41.47668 28.08929,-61.731 h 82.59584 63.48005 c 8.56374,18.71703 25.62798,63.50205 36.04527,77.84096 7.84047,10.7913 23.92843,13.30212 35.57226,7.62871 32.89918,-16.0302 8.32448,-53.98953 -1.5758,-76.27066 L 360.81834,498.96709 c -10.89031,-23.76342 -21.42585,-69.55772 -54.10503,-66.99465 z"
     id="path5"
     style="stroke-width:2.75008" />
  <path
     fill="#94a398"
     d="m 237.6231,696.37043 c -10.02128,20.25432 -18.01576,41.53443 -28.08929,61.731 -21.55786,43.22847 -69.79148,17.21549 -58.06515,-15.40044 8.31074,-23.11165 19.95457,-45.15078 30.21511,-67.44016 l 86.11044,-190.01938 c 8.79475,-19.75381 14.89717,-47.62035 38.9191,-53.26901 32.67918,-2.56307 43.21472,43.23123 54.10503,66.99465 l 92.92238,206.60235 c 9.90028,22.28113 34.47498,60.24046 1.5758,76.27066 -11.64383,5.67341 -27.73179,3.16259 -35.57226,-7.62871 -10.41729,-14.33891 -27.48153,-59.12393 -36.04527,-77.84096 h -63.48005 z m 72.91282,-160.92631 -48.57188,106.08701 h 48.57188 47.46909 c -3.03333,-9.08351 -44.41926,-102.89692 -47.46909,-106.08701 z"
     id="path6"
     style="stroke-width:2.75008" />
  <path
     fill="#94a398"
     d="m 690.32443,491.99564 c 3.7566,-0.18975 7.49946,-0.0797 11.25881,0 h 177.23978 l 0.0495,130.7387 c 0.33551,30.42962 -8.18423,51.0827 -37.76132,21.0821 L 709.57772,511.7467 c -6.50393,-6.47368 -13.34888,-12.71911 -19.25329,-19.75106 z"
     id="path7"
     style="stroke-width:2.75008" />
  <path
     fill="#f4f1bb"
     d="m 261.96404,641.53113 48.57188,-106.08701 c 3.04983,3.19009 44.43576,97.0035 47.46909,106.08701 h -47.46909 z"
     id="path8"
     style="stroke-width:2.75008" />
</svg>
