<?xml version="1.0" encoding="utf-8" ?><svg xmlns="http://www.w3.org/2000/svg" xmlns:xlink="http://www.w3.org/1999/xlink" width="64" height="64" viewBox="0 0 64 64"><defs><linearGradient id="gradient_0" gradientUnits="userSpaceOnUse" x1="816.34412" y1="817.1593" x2="207.40303" y2="207.58965"><stop offset="0" stop-color="#97A2A5"/><stop offset="1" stop-color="#E5E4E3"/></linearGradient></defs><path fill="url(#gradient_0)" transform="scale(0.0625 0.0625)" d="M80.8961 492.768C85.8547 378.235 136.31 270.415 221.069 193.225C306.244 115.603 418.934 75.2855 534.018 81.2597C628.883 86.0925 719.501 122.098 791.813 183.691C803.587 193.72 817.232 206.39 827.695 217.916C841.837 233.269 854.958 249.53 866.975 266.597C920.85 345.2 947.526 439.272 942.931 534.455C937.311 648.369 886.849 755.433 802.563 832.269C717.465 909.732 604.783 949.706 489.893 943.189C371.135 936.895 265.076 884.856 186.118 796.138C183.973 793.728 176.535 785.366 175.279 782.977C172.713 780.474 166.171 771.822 164.216 768.705C156.068 761.723 125.611 708.897 121.235 697.198C118.955 693.461 113.167 679.11 111.423 674.731C91.9176 625.945 81.405 574.031 80.3933 521.5C80.2724 514.298 79.9354 499.67 80.8961 492.768Z"/><path fill="#A5A3AA" transform="scale(0.0625 0.0625)" d="M121.235 697.198C118.955 693.461 113.167 679.11 111.423 674.731C91.9176 625.945 81.405 574.031 80.3933 521.5C80.2724 514.298 79.9354 499.67 80.8961 492.768L81.0089 493.55C82.1851 502.026 81.2879 520.307 81.6775 530.068C82.7795 556.778 86.3047 583.332 92.2096 609.404C96.2607 626.547 101.233 643.46 107.105 660.068C109.66 667.17 112.416 674.198 115.368 681.143C116.886 684.682 121.535 693.834 121.235 697.198Z"/><path fill="#A5A3AA" transform="scale(0.0625 0.0625)" d="M164.216 768.705C167.741 769.368 175.53 779.703 175.279 782.977C172.713 780.474 166.171 771.822 164.216 768.705Z"/><defs><linearGradient id="gradient_1" gradientUnits="userSpaceOnUse" x1="554.07336" y1="688.95685" x2="482.42184" y2="374.98685"><stop offset="0" stop-color="#292929"/><stop offset="1" stop-color="#636363"/></linearGradient></defs><path fill="url(#gradient_1)" transform="scale(0.0625 0.0625)" d="M598.271 330.866C621.6 321.798 647.123 314.82 671.533 305.551L671.369 403.314L671.339 436.643C671.309 439.989 671.456 447.982 671.084 451.038L671.105 542.559L671.438 574.771C671.591 594.21 672.468 606.521 662.068 623.768C653.155 638.402 638.763 648.868 622.094 652.835C605.563 656.924 588.082 654.181 573.597 645.225C559.634 636.688 549.988 624.567 546.2 608.52C542.233 591.415 545.265 573.433 554.622 558.574C563.195 544.686 576.967 534.804 592.869 531.128C611.199 526.973 625.507 531.093 640.932 540.8C641.491 503.405 640.686 465.387 640.983 427.927C641.15 406.98 640.483 386.848 641.501 365.769C587.987 383.829 533.601 403.636 480.193 422.403L480.014 582.783L480.044 632.428C480.054 641.567 480.385 653.774 479.586 662.683C479.014 669.813 477.186 676.785 474.185 683.277C467.151 698.187 451.865 711.11 436.365 716.524C420.37 722.034 402.836 720.918 387.669 713.423C355.82 697.767 342.566 659.4 358.638 627.543C366.289 612.286 379.774 600.762 396.038 595.584C415.69 589.267 431.131 592.852 448.813 601.843C449.518 579.602 449.03 556.872 449.003 534.579L448.949 430.522C448.924 423.864 448.195 383.606 449.203 381.475C454.577 381.622 519.885 357.599 529.106 354.429C546.227 348.654 563.313 342.776 580.364 336.797C586.333 334.746 592.37 333.045 598.271 330.866Z"/><path fill="#636363" transform="scale(0.0625 0.0625)" d="M598.271 330.866C600.287 331.09 600.506 330.996 602.626 330.69C611.924 329.348 618.54 331.258 628.232 330.968C640.809 330.593 657.303 323.671 669.616 328.33C671.056 328.875 670.895 333.282 670.859 334.683C670.428 335.734 670.391 336.794 670.302 337.916L669.558 338.449C667.115 337.802 663.33 336.744 660.921 337.233C651.922 339.058 642.782 341.586 633.854 343.549L541.25 364.501C536.236 365.678 522.395 367.877 519.113 370.648L518.258 370.515C511.533 369.504 511.176 371.35 504.517 372.7C501.536 373.305 496.752 373.328 493.95 373.98C484.982 376.063 476.726 377.887 467.644 379.862C463.171 380.836 456.52 382.936 451.584 383.348C450.65 382.613 449.856 381.989 449.203 381.475C454.577 381.622 519.885 357.599 529.106 354.429C546.227 348.654 563.313 342.776 580.364 336.797C586.333 334.746 592.37 333.045 598.271 330.866Z"/><path fill="#767D82" transform="scale(0.0625 0.0625)" d="M598.271 330.866C621.6 321.798 647.123 314.82 671.533 305.551L671.369 403.314L671.339 436.643C671.309 439.989 671.456 447.982 671.084 451.038C670.358 441.767 670.936 425.034 670.926 415.256C671.054 388.398 671.032 361.541 670.859 334.683C670.895 333.282 671.056 328.875 669.616 328.33C657.303 323.671 640.809 330.593 628.232 330.968C618.54 331.258 611.924 329.348 602.626 330.69C600.506 330.996 600.287 331.09 598.271 330.866Z"/><path fill="#A5A3AA" transform="scale(0.0625 0.0625)" d="M902.206 461.352C902.784 465.179 903.284 470.167 903.382 474.034C901.665 470.263 901.464 465.376 902.206 461.352Z"/></svg>