<?xml version="1.0" encoding="utf-8" ?><svg xmlns="http://www.w3.org/2000/svg" xmlns:xlink="http://www.w3.org/1999/xlink" width="64" height="64" viewBox="0 0 64 64"><defs><linearGradient id="gradient_0" gradientUnits="userSpaceOnUse" x1="847.16907" y1="780.04376" x2="177.67763" y2="245.23027"><stop offset="0" stop-color="#282F31"/><stop offset="1" stop-color="#565F62"/></linearGradient></defs><path fill="url(#gradient_0)" transform="scale(0.0625 0.0625)" d="M231.347 186.108C237.151 179.63 258.794 163.958 265.965 158.983C330.797 113.808 406.827 87.3787 485.7 82.5982C599.76 75.6304 711.904 114.335 797.385 190.171C882.919 265.884 934.784 372.54 941.519 486.571C948.431 602.157 908.512 715.657 830.765 801.467C754.307 885.903 647.481 936.568 533.719 942.35C418.81 948.075 306.378 907.644 221.431 830.05C136.825 752.715 86.5579 644.83 81.771 530.305C78.5429 459.179 93.2866 388.387 124.641 324.463C129.311 314.965 135.101 303.42 140.68 294.439C140.92 293.873 142.342 291.547 142.729 290.89C146.048 285.134 149.303 279.874 153.24 274.514C156.864 264.808 194.196 220.514 202.948 212.617C204.247 210.447 218.591 197.389 221.409 194.79C224.571 191.728 227.888 188.83 231.347 186.108Z"/><path fill="#4F5862" transform="scale(0.0625 0.0625)" d="M202.948 212.617C206.393 212.521 207.995 207.752 209.989 207.196L210.748 208.292L213.4 207.878L213.678 207.479C214.422 206.429 214.638 205.866 215.843 205.479C216.15 206.786 216.155 207.34 216.249 208.666C215.378 209.996 214.852 210.303 213.632 211.277L213.158 212.775L213.561 213.239L215.418 211.624C213.884 215.339 213.081 214.294 211.024 216.818L211.119 217.593C212.723 218.276 213.341 218.411 214.988 218.806L215.059 219.415C213.882 220.306 213.52 220.169 212.031 220.275C213.018 222.502 221.83 223.375 219.457 227.697C219.403 227.796 220.338 230.268 220.514 230.581C224.995 240.374 228.782 238.985 227.623 250.438C227.253 254.097 227.974 255.369 226.279 260.112C224.241 265.817 217.84 270.363 216.913 275.583C216.164 279.8 216.624 280.004 213.301 282.337C206.098 287.397 199.367 288.608 190.976 290.207C188.757 290.63 184.485 295.452 179.633 296.128C177.624 293.951 171.476 291.793 168.086 289.641L167.028 290.241L166.806 291.559C164.409 288.836 163.706 284.42 159.592 284.209L159.348 286.594L158.762 286.623L156.699 284.26L156.419 285.729C155.389 285.84 154.066 284.619 153.711 283.649L152.665 285.136L152.054 284.759C152.276 282.923 153.311 281.486 154.25 279.869C151.792 277.935 152.515 277.673 153.24 274.514C156.864 264.808 194.196 220.514 202.948 212.617Z"/><path fill="#4F5862" transform="scale(0.0625 0.0625)" d="M221.409 194.79C224.571 191.728 227.888 188.83 231.347 186.108C231.404 189.569 233.508 188.543 228.568 191.615C226.894 192.656 225.045 193.485 223.794 195.022C222.52 195.241 222.611 195.259 221.409 194.79Z"/><path fill="#4F5862" transform="scale(0.0625 0.0625)" d="M142.729 290.89C143.309 292.644 143.651 293.369 143.713 295.246L142.911 295.676C141.748 295.212 141.708 295.168 140.68 294.439C140.92 293.873 142.342 291.547 142.729 290.89Z"/><defs><linearGradient id="gradient_1" gradientUnits="userSpaceOnUse" x1="737.89868" y1="692.00574" x2="285.7692" y2="331.03149"><stop offset="0" stop-color="#027EE8"/><stop offset="1" stop-color="#1699FD"/></linearGradient></defs><path fill="url(#gradient_1)" transform="scale(0.0625 0.0625)" d="M501.895 221.721C662.071 216.106 796.479 341.383 802.129 501.557C807.779 661.732 682.532 796.168 522.359 801.853C362.136 807.54 227.649 682.245 221.998 522.021C216.346 361.797 341.67 227.338 501.895 221.721Z"/><defs><linearGradient id="gradient_2" gradientUnits="userSpaceOnUse" x1="557.76508" y1="702.82233" x2="476.76001" y2="372.28571"><stop offset="0" stop-color="#BECCCF"/><stop offset="1" stop-color="#F8F8F7"/></linearGradient></defs><path fill="url(#gradient_2)" transform="scale(0.0625 0.0625)" d="M345.755 401.819C402.714 315.854 516.061 287.902 606.457 337.53C678.07 376.845 718.237 456.06 707.634 537.064C697.032 618.069 637.83 684.277 558.511 703.838C479.192 723.398 395.996 692.305 348.947 625.517C301.899 558.73 300.632 469.922 345.755 401.819Z"/><path fill="#FCFCFC" transform="scale(0.0625 0.0625)" d="M345.755 401.819C402.714 315.854 516.061 287.902 606.457 337.53C607.452 339.024 607.991 339.579 609.326 340.79L609.449 341.762C608.716 342.57 607.7 343.105 606.616 343.286C581.015 347.561 556.142 356.483 530.467 360.762C523.609 361.905 515.876 365.111 509.199 367.228C506.862 367.969 506.575 369.769 504.501 370.357C504.253 368.265 504.714 368.995 503.604 367.727C480.293 373.148 456.34 379.413 433.107 385.113C423.843 387.386 412.632 385.292 407.568 394.483C406.198 396.968 407.822 396.957 407.022 397.579C405.301 395.982 405.841 395.986 403.932 395.735C402.86 395.004 397.928 390.058 396.748 388.896C392.403 384.591 387.996 380.349 383.526 376.173L375.926 385.452C376.95 387.943 383.789 394.085 386.068 396.435C385.192 397.72 380.019 397.235 378.283 397.73C370.087 400.064 361.464 401.479 353.4 404.639C350.345 405.837 347.552 408.802 343.702 410.177L343.378 410.84C343.162 404.246 345.67 405.967 345.755 401.819Z"/><path fill="#4F5862" transform="scale(0.0625 0.0625)" d="M506.037 324.027L518.443 324.033C518.33 334.755 518.049 344.905 518.081 355.718C514.636 355.985 509.702 355.876 506.145 355.901C506.028 345.277 505.992 334.652 506.037 324.027Z"/><path fill="#4F5862" transform="scale(0.0625 0.0625)" d="M383.526 376.173C387.996 380.349 392.403 384.591 396.748 388.896C397.928 390.058 402.86 395.004 403.932 395.735C405.563 397.534 405.727 397.1 405.803 398.958C404.402 401.668 400.823 404.385 398.492 406.602C391.831 402.109 380.817 388.274 375.926 385.452L383.526 376.173Z"/><defs><linearGradient id="gradient_3" gradientUnits="userSpaceOnUse" x1="541.46307" y1="460.70331" x2="493.17108" y2="450.5564"><stop offset="0" stop-color="#087EE1"/><stop offset="1" stop-color="#0CA4FF"/></linearGradient></defs><path fill="url(#gradient_3)" transform="scale(0.0625 0.0625)" d="M505.199 490.894L505.425 428.202C505.406 415.571 505.017 403.021 505.465 390.401C505.884 378.596 519.352 382.194 519.388 389.924C519.429 398.508 519.209 407.638 519.281 416.318L519.439 489.192C531.013 494.596 535.147 503.966 530.473 516.025C526.921 521.087 524.809 523.779 518.697 526.046C516.138 526.327 513.187 526.695 510.665 526.291C505.489 525.449 500.877 522.542 497.884 518.236C494.988 514.09 493.928 508.935 494.952 503.983C496.286 497.699 500.034 494.083 505.199 490.894Z"/><path fill="#FB741E" transform="scale(0.0625 0.0625)" d="M530.473 516.025C534.154 519.928 537.848 523.864 541.631 527.665C568.016 554.173 594.313 580.619 621.269 606.546C617.661 610.444 614.085 614.371 610.542 618.327L553.733 561.728C542.3 550.332 529.075 538.209 518.697 526.046C524.809 523.779 526.921 521.087 530.473 516.025Z"/><path fill="#4F5862" transform="scale(0.0625 0.0625)" d="M625.36 617.833C631.395 622.336 643.058 635.127 648.281 640.785C645.694 643.763 643.122 646.355 640.352 649.165C632.437 641.784 624.415 633.542 616.868 625.743C619.667 623.277 622.613 620.402 625.36 617.833Z"/><path fill="#4F5862" transform="scale(0.0625 0.0625)" d="M506.531 668.546L518.253 668.974C518.525 679.779 518.598 690.588 518.473 701.395L506.503 701.497L506.531 668.546Z"/><path fill="#4F5862" transform="scale(0.0625 0.0625)" d="M399.356 615.813C402.071 617.666 405.582 622.013 407.654 624.543L385.024 647.139C383.034 645.86 378.694 640.993 376.869 639.025C383.591 631.305 392.147 623.384 399.356 615.813Z"/><path fill="#4F5862" transform="scale(0.0625 0.0625)" d="M639.913 375.896L647.403 383.817C639.621 392.182 631.728 400.445 623.729 408.604C621.618 405.881 618.272 402.757 615.754 400.265C623.906 392.241 631.96 384.117 639.913 375.896Z"/><path fill="#4F5862" transform="scale(0.0625 0.0625)" d="M322.193 505.506C331.034 505.363 341.137 504.829 349.934 505.894C353.952 506.38 352.586 514.22 351.74 516.974C343.333 517.695 334.578 517.596 326.153 517.295C319.357 517.052 321.425 510.075 322.193 505.506Z"/><path fill="#4F5862" transform="scale(0.0625 0.0625)" d="M671.904 506.498L700.482 506.495C700.551 510.272 700.693 513.734 700.314 517.5C690.723 517.423 681.13 517.527 671.542 517.811L671.904 506.498Z"/></svg>