<?xml version="1.0" encoding="UTF-8" standalone="no"?>
<svg
   height="22"
   width="22"
   version="1.1"
   id="svg8"
   sodipodi:docname="unify.svg"
   inkscape:version="1.4.2 (ebf0e940d0, 2025-05-08)"
   xmlns:inkscape="http://www.inkscape.org/namespaces/inkscape"
   xmlns:sodipodi="http://sodipodi.sourceforge.net/DTD/sodipodi-0.dtd"
   xmlns="http://www.w3.org/2000/svg"
   xmlns:svg="http://www.w3.org/2000/svg">
  <defs
     id="defs8">
    <filter
       style="color-interpolation-filters:sRGB;"
       inkscape:label="Drop Shadow"
       id="filter40"
       x="0"
       y="0"
       width="1.0729756"
       height="1.0559438">
      <feFlood
         result="flood"
         in="SourceGraphic"
         flood-opacity="0.125490"
         flood-color="rgb(0,0,0)"
         id="feFlood39" />
      <feGaussianBlur
         result="blur"
         in="SourceGraphic"
         stdDeviation="0.000000"
         id="feGaussianBlur39" />
      <feOffset
         result="offset"
         in="blur"
         dx="0.500000"
         dy="0.500000"
         id="feOffset39" />
      <feComposite
         result="comp1"
         operator="in"
         in="flood"
         in2="offset"
         id="feComposite39" />
      <feComposite
         result="comp2"
         operator="over"
         in="SourceGraphic"
         in2="comp1"
         id="feComposite40" />
    </filter>
  </defs>
  <sodipodi:namedview
     id="namedview8"
     pagecolor="#ffffff"
     bordercolor="#000000"
     borderopacity="0.25"
     inkscape:showpageshadow="2"
     inkscape:pageopacity="0.0"
     inkscape:pagecheckerboard="0"
     inkscape:deskcolor="#d1d1d1"
     inkscape:zoom="19.068182"
     inkscape:cx="15.051251"
     inkscape:cy="12.560191"
     inkscape:window-width="2560"
     inkscape:window-height="1020"
     inkscape:window-x="0"
     inkscape:window-y="0"
     inkscape:window-maximized="1"
     inkscape:current-layer="svg8" />
  <linearGradient
     id="a"
     gradientTransform="matrix(.41666692 0 0 .40833269 -159.23827 -203.25094)"
     gradientUnits="userSpaceOnUse"
     x2="0"
     y1="543.79797"
     y2="502.65509">
    <stop
       offset="0"
       stop-color="#c6cdd1"
       id="stop1" />
    <stop
       offset="1"
       stop-color="#e0e5e7"
       id="stop2" />
  </linearGradient>
  <linearGradient
     id="b"
     gradientUnits="userSpaceOnUse"
     x1="5.375003"
     x2="14.75002"
     y1="7.000012"
     y2="16.375009">
    <stop
       offset="0"
       id="stop3" />
    <stop
       offset="1"
       stop-opacity="0"
       id="stop4" />
  </linearGradient>
  <path
     d="m1.000006 2h19.999994v18h-19.999994z"
     fill="url(#a)"
     stroke-width=".633866"
     id="path4" />
  <path
     d="m2 18 18-11 1 1v11.500012l-17 .499988z"
     fill="url(#b)"
     fill-rule="evenodd"
     opacity=".2"
     stroke-width=".625"
     id="path5" />
  <path
     d="m1 2h20.000002v3h-20.000002z"
     fill="#566069"
     stroke-width=".684653"
     id="path6" />
  <path
     d="m1.000027 5h19.999973v1h-19.999973z"
     fill="#3daee9"
     stroke-width=".790569"
     id="path7"
     style="fill:#50d68d;fill-opacity:1" />
  <path
     d="m2 7h18v10.999999h-18z"
     fill="#fff"
     stroke-width=".574456"
     id="path8" />
  <rect
     fill="#eff0f1"
     height="1.5"
     rx=".75"
     stroke-width=".75"
     width="1.5"
     x="18.75"
     y="2.75"
     id="rect8" />
  <g
     id="text8"
     style="opacity:1;filter:url(#filter40)">
    <path
       style="baseline-shift:baseline;display:inline;overflow:visible;vector-effect:none;fill:#50d68d;enable-background:accumulate;stop-color:#000000;stop-opacity:1"
       d="m 14.300003,13.720862 q 0,0.888 -0.36,1.608 -0.36,0.708 -1.104,1.128 -0.732,0.408 -1.872,0.408 -1.5960003,0 -2.4360003,-0.864 -0.828,-0.876 -0.828,-2.304 V 8.1768616 h 1.08 v 5.5560004 q 0,1.044 0.552,1.62 0.564,0.576 1.6920003,0.576 1.164,0 1.68,-0.612 0.528,-0.624 0.528,-1.596 V 8.1768616 h 1.068 z"
       id="path40" />
    <path
       style="baseline-shift:baseline;display:inline;overflow:visible;vector-effect:none;fill:#50d68d;enable-background:accumulate;stop-color:#000000;stop-opacity:1"
       d="m 7.5742187,8.0527344 v 5.6445316 c 0,0.976159 0.2879898,1.78003 0.8632813,2.388671 v 0.002 c 0.5875817,0.604369 1.4407872,0.902343 2.527344,0.902343 0.774912,0 1.419536,-0.138393 1.93164,-0.423828 0.514669,-0.290538 0.903055,-0.68753 1.154297,-1.18164 h 0.002 c 0.249193,-0.498386 0.373047,-1.055171 0.373047,-1.664063 V 8.0527344 h -1.318359 v 5.6679686 c 0,0.625366 -0.16672,1.124057 -0.498047,1.515625 -0.314142,0.372587 -0.831845,0.56836 -1.585937,0.56836 -0.730724,0 -1.2547076,-0.184828 -1.601563,-0.539063 C 9.079978,14.908863 8.9042969,14.406391 8.9042969,13.732422 V 8.0527344 Z m 0.25,0.25 h 0.8300782 v 5.4296876 c 0,0.718031 0.1937876,1.295793 0.5878906,1.707031 0.4051446,0.413765 1.0079735,0.615234 1.7812505,0.615234 0.797907,0 1.401532,-0.21479 1.77539,-0.658203 0.371889,-0.440232 0.558594,-1.00585 0.558594,-1.675781 V 8.3027344 h 0.818359 v 5.4179686 c 0,0.575108 -0.116849,1.09112 -0.347656,1.552735 -0.228766,0.449299 -0.575845,0.805007 -1.052734,1.074218 -0.463896,0.258565 -1.06546,0.392578 -1.810547,0.392578 -1.0407018,0 -1.8133226,-0.279315 -2.3457034,-0.826171 C 8.0904321,15.354704 7.8242188,14.625106 7.8242187,13.697266 Z"
       id="path41" />
  </g>
</svg>
